# Blender v3.3.1 OBJ File: ''
# www.blender.org
mtllib player_shoesL.mtl
o 左足_立方体.001
v 0.591355 -1.631070 1.553904
v 0.533602 -1.342009 0.376680
v 0.565062 -1.342009 0.386094
v 1.367592 -1.994106 1.817784
v 1.525488 -1.994106 1.599518
v 1.525488 -2.223569 1.599518
v 0.453900 -2.223569 1.548680
v 0.608909 -2.223569 1.809962
v 0.608909 -2.301141 1.809962
v 0.985743 -2.223569 1.970140
v 0.736619 -2.223569 1.914273
v 0.736619 -1.994106 1.914273
v 0.385735 -2.223569 -0.420311
v 0.384034 -1.994106 -0.424575
v 0.239922 -1.994106 -0.315466
v 1.189517 -2.223569 1.926168
v 0.985743 -1.994106 1.970140
v 0.324288 -2.223569 0.933132
v 0.306076 -2.223569 0.714472
v 0.306076 -1.994105 0.714472
v 0.985743 -2.301141 1.970140
v 1.380735 -1.994106 0.511614
v 1.243258 -1.994106 0.340541
v 1.243258 -2.223569 0.340541
v 1.022874 -1.631070 0.129184
v 1.142268 -1.631070 0.277756
v 0.714406 -1.342009 -0.012859
v 0.368114 -2.223569 1.249277
v 0.368114 -1.994106 1.249277
v 0.239922 -2.223569 -0.315466
v 0.187884 -2.223569 -0.216550
v 0.187884 -2.301141 -0.216550
v 1.610406 -1.994106 1.087239
v 1.524620 -1.994106 0.787836
v 1.524620 -2.223569 0.787836
v 0.456734 -1.631070 1.326988
v 0.498006 -1.342009 0.358077
v 0.270901 -1.631069 -0.291968
v 0.396058 -1.631069 -0.386725
v 0.403575 -1.342009 -0.256323
v 1.009042 -1.994106 -0.007345
v 0.887224 -1.994106 -0.266239
v 0.887224 -2.223569 -0.266239
v 1.593101 -2.223569 1.417274
v 1.610406 -2.223569 1.087239
v 1.610406 -2.301141 1.087239
v 0.252638 -2.223569 0.294457
v 0.160357 -2.223569 0.023778
v 0.160357 -1.994106 0.023778
v 0.281944 -1.631070 0.237733
v 0.298034 -1.342009 -0.048801
v 0.306827 -1.342009 0.035626
v 1.380735 -2.223569 0.511614
v 1.367592 -2.223569 1.817784
v 1.525488 -2.301141 1.599518
v 0.324288 -1.994105 0.933132
v 1.386623 -1.631070 0.666218
v 1.461126 -1.631070 0.926240
v 0.738881 -1.342009 0.280235
v 1.009042 -2.223569 -0.007345
v 1.105781 -2.223569 0.169468
v 0.696823 -2.223569 0.332641
v 0.630840 -2.223569 0.143556
v 0.287864 -2.223569 0.495813
v 0.252638 -1.994106 0.294457
v 0.453900 -1.994106 1.548680
v 1.189517 -2.301141 1.926168
v 1.593101 -1.994106 1.417274
v 1.446097 -1.631070 1.212866
v 0.717558 -1.342009 0.327691
v 0.608909 -1.994106 1.809962
v 0.630840 -2.301141 0.143556
v 0.938859 -1.631070 -0.024373
v 0.684278 -1.342009 -0.078457
v 0.150788 -2.223569 -0.123597
v 0.150788 -1.994106 -0.123597
v 1.009042 -2.301141 -0.007345
v 0.762741 -1.994106 -0.367763
v 0.762741 -2.223569 -0.367763
v 1.261663 -1.631070 0.426327
v 0.754899 -1.342009 0.188072
v 0.363828 -1.342009 -0.233285
v 0.345310 -1.342009 -0.205258
v 0.681886 -1.994106 -0.413655
v 0.681886 -2.223569 -0.413655
v 0.563673 -2.223569 -0.444641
v 0.385735 -2.301141 -0.420311
v 0.187884 -1.994106 -0.216550
v 0.306076 -2.301141 0.714472
v 0.563673 -1.994106 -0.444641
v 0.382232 -1.631070 1.066966
v 0.452292 -1.342009 0.317700
v 0.225707 -1.631069 -0.206062
v 0.320259 -1.342009 -0.169836
v 0.563673 -2.301141 -0.444641
v 1.105781 -2.301141 0.169468
v 0.328354 -1.631070 0.602504
v 0.336661 -1.342009 0.136728
v 0.389660 -1.342009 0.243071
v 0.193491 -1.631069 -0.125335
v 0.299990 -1.342009 -0.108442
v 0.150788 -2.301141 -0.123597
v 0.918624 -1.631070 1.693014
v 0.599667 -1.342009 0.393276
v 0.624744 -1.342009 0.391880
v 0.681886 -2.301141 -0.413655
v 0.552068 -1.631069 -0.404152
v 0.457854 -1.342009 -0.263999
v 0.252638 -2.301141 0.294457
v 0.654733 -1.631069 -0.377242
v 0.517062 -1.342009 -0.247966
v 0.887224 -2.301141 -0.266239
v 0.724954 -1.631069 -0.337386
v 0.559763 -1.342009 -0.223941
v 0.368114 -2.301141 1.249277
v 1.096007 -1.631070 1.655855
v 0.653803 -1.342009 0.384380
v 0.344170 -1.631070 0.792403
v 0.324288 -2.301141 0.933132
v 0.833064 -1.631069 -0.249215
v 0.598482 -1.342009 -0.192317
v 0.736619 -2.301141 1.914273
v 1.367592 -2.301141 1.817784
v 1.387377 -1.631070 1.371140
v 1.250249 -1.631070 1.560697
v 0.702268 -1.631070 1.644495
v 0.684598 -1.342009 0.365764
v 0.642075 -1.342009 -0.140791
v 0.201801 -1.631069 0.002656
v 1.189990 -1.994106 1.927353
v 1.105781 -1.994106 0.169468
v 0.312537 -1.631070 0.412605
v 0.287864 -1.994106 0.495813
v 1.380735 -2.301141 0.511614
v 0.745399 -1.342009 0.090653
v 1.243258 -2.301141 0.340541
v 1.131053 -2.301141 1.756895
v 0.852511 -2.301141 0.722373
v 0.774667 -2.301141 0.527507
v 1.032153 -2.301141 1.317959
v 0.946367 -2.301141 1.018556
v 0.523790 -2.301141 -0.121230
v 0.160357 -2.301141 0.023778
v 0.453900 -2.301141 1.548680
v 1.101005 -2.301141 1.613618
v 0.456765 -2.301141 -0.245680
v 0.434885 -2.301141 -0.315103
v 0.239922 -2.301141 -0.315466
v 0.762741 -2.301141 -0.367763
v 1.593101 -2.301141 1.417274
v 1.524620 -2.301141 0.787836
v 0.696823 -2.301141 0.332641
v 0.287864 -2.301141 0.495813
vt 0.594371 1.000000
vt 0.609686 1.000000
vt 0.594371 1.000000
vt 0.625000 0.250000
vt 0.609686 0.500000
vt 0.609686 0.250000
vt 0.562500 0.750000
vt 0.594371 0.750000
vt 0.594371 0.750000
vt 0.625000 0.750000
vt 0.609686 1.000000
vt 0.609686 0.750000
vt 0.375000 0.625000
vt 0.125000 0.750000
vt 0.125000 0.625000
vt 0.625000 0.625000
vt 0.875000 0.750000
vt 0.500000 0.750000
vt 0.484375 1.000000
vt 0.484375 0.750000
vt 0.625000 0.750000
vt 0.500000 0.250000
vt 0.484375 0.500000
vt 0.484375 0.250000
vt 0.468750 0.250000
vt 0.484375 0.250000
vt 0.484375 0.250000
vt 0.531250 1.000000
vt 0.531250 0.750000
vt 0.375000 0.750000
vt 0.382942 0.750000
vt 0.382942 0.750000
vt 0.562500 0.250000
vt 0.531250 0.500000
vt 0.531250 0.250000
vt 0.562500 1.000000
vt 0.562500 1.000000
vt 0.125000 0.750000
vt 0.125000 0.625000
vt 0.125000 0.625000
vt 0.437500 0.250000
vt 0.406250 0.500000
vt 0.406250 0.250000
vt 0.594371 0.500000
vt 0.562500 0.500000
vt 0.562500 0.500000
vt 0.437500 0.750000
vt 0.406250 1.000000
vt 0.406250 0.750000
vt 0.437500 1.000000
vt 0.468750 1.000000
vt 0.437500 1.000000
vt 0.500000 0.500000
vt 0.625000 0.500000
vt 0.609686 0.500000
vt 0.500000 1.000000
vt 0.531250 0.250000
vt 0.562500 0.250000
vt 0.562500 0.250000
vt 0.468750 0.500000
vt 0.437500 0.500000
vt 0.468750 0.625000
vt 0.437500 0.625000
vt 0.468750 0.750000
vt 0.437500 1.000000
vt 0.562500 1.000000
vt 0.625000 0.625000
vt 0.594371 0.250000
vt 0.594371 0.250000
vt 0.594371 0.250000
vt 0.594371 1.000000
vt 0.437500 0.625000
vt 0.437500 0.250000
vt 0.468750 0.250000
vt 0.390885 1.000000
vt 0.390885 0.750000
vt 0.437500 0.500000
vt 0.390885 0.500000
vt 0.390885 0.250000
vt 0.500000 0.250000
vt 0.531250 0.250000
vt 0.375000 1.000000
vt 0.382942 1.000000
vt 0.375000 1.000000
vt 0.382942 0.250000
vt 0.382942 0.500000
vt 0.375000 0.500000
vt 0.375000 0.625000
vt 0.382942 1.000000
vt 0.375000 1.000000
vt 0.484375 0.750000
vt 0.375000 0.250000
vt 0.531250 1.000000
vt 0.531250 1.000000
vt 0.382942 1.000000
vt 0.390885 1.000000
vt 0.375000 0.500000
vt 0.468750 0.500000
vt 0.484375 1.000000
vt 0.500000 1.000000
vt 0.484375 1.000000
vt 0.390885 1.000000
vt 0.406250 1.000000
vt 0.390885 0.750000
vt 0.875000 0.750000
vt 0.875000 0.625000
vt 0.875000 0.750000
vt 0.382942 0.500000
vt 0.125000 0.500000
vt 0.125000 0.500000
vt 0.437500 0.750000
vt 0.375000 0.250000
vt 0.382942 0.250000
vt 0.382942 0.250000
vt 0.406250 0.500000
vt 0.390885 0.250000
vt 0.390885 0.250000
vt 0.531250 0.750000
vt 0.875000 0.625000
vt 0.875000 0.500000
vt 0.500000 1.000000
vt 0.500000 0.750000
vt 0.406250 0.250000
vt 0.406250 0.250000
vt 0.609686 0.750000
vt 0.875000 0.500000
vt 0.125000 0.500000
vt 0.625000 0.500000
vt 0.609686 0.250000
vt 0.625000 0.250000
vt 0.625000 0.250000
vt 0.609686 1.000000
vt 0.625000 1.000000
vt 0.609686 0.250000
vt 0.437500 0.250000
vt 0.406250 1.000000
vt 0.625000 1.000000
vt 0.875000 0.625000
vt 0.468750 0.250000
vt 0.468750 1.000000
vt 0.468750 1.000000
vt 0.500000 0.500000
vt 0.500000 0.250000
vt 0.484375 0.500000
vt 0.609686 0.625000
vt 0.500000 0.625000
vt 0.484375 0.625000
vt 0.562500 0.625000
vt 0.531250 0.625000
vt 0.406250 0.750000
vt 0.406250 0.625000
vt 0.562500 0.750000
vt 0.594371 0.625000
vt 0.390885 0.625000
vt 0.382942 0.625000
vt 0.375000 0.750000
vt 0.390885 0.500000
vt 0.594371 0.500000
vt 0.531250 0.500000
vt 0.468750 0.625000
vt 0.468750 0.750000
vt 0.625000 1.000000
vt 0.125000 0.750000
vt 0.375000 0.250000
vt 0.875000 0.500000
vn -0.0722 0.9678 0.2412
vn 0.8102 0.0000 0.5861
vn -0.8600 0.0000 0.5102
vn -0.2188 0.0000 0.9758
vn -0.6035 -0.0193 -0.7971
vn 0.2067 -0.0038 0.9784
vn 0.2107 0.0000 0.9776
vn 0.2109 0.0000 0.9775
vn -0.9965 0.0000 0.0830
vn 0.7795 -0.0000 -0.6264
vn 0.6904 0.4641 -0.5548
vn -0.9613 0.0000 0.2754
vn -0.8850 -0.0000 -0.4656
vn 0.9613 0.0000 -0.2754
vn -0.1449 0.9498 0.2772
vn -0.5651 0.3514 -0.7464
vn 0.9048 -0.0000 -0.4258
vn 0.9986 0.0000 0.0524
vn -0.9465 0.0000 0.3227
vn -0.9824 0.1561 0.1023
vn 0.8869 -0.0000 -0.4620
vn -0.9905 0.0000 0.1373
vn 0.4696 0.8726 -0.1345
vn 0.8773 -0.0000 -0.4800
vn 0.0000 -1.0000 -0.0000
vn -0.9850 -0.0000 0.1723
vn 0.3494 0.9368 0.0183
vn -0.6326 0.0000 0.7745
vn 0.3706 0.0000 0.9288
vn 0.9376 0.0000 0.3478
vn 0.7245 0.5639 -0.3964
vn -0.9979 0.0000 0.0648
vn 0.6320 -0.0000 -0.7750
vn 0.6320 -0.0000 -0.7749
vn 0.5751 0.7613 -0.2996
vn -0.7799 0.3553 -0.5153
vn 0.4936 -0.0000 -0.8697
vn -0.1355 -0.0000 -0.9908
vn -0.9288 0.0000 -0.3707
vn 0.2536 -0.0000 -0.9673
vn -0.2843 0.9031 0.3218
vn -0.7731 0.3214 -0.5468
vn -0.7179 0.5972 0.3578
vn -0.8911 0.3455 -0.2942
vn 0.0119 0.9767 0.2143
vn -0.1014 0.4071 -0.9077
vn 0.2269 0.4841 -0.8451
vn 0.2235 0.4842 -0.8459
vn 0.2218 0.4842 -0.8464
vn 0.4168 0.5290 -0.7392
vn 0.4182 0.5290 -0.7384
vn 0.4189 0.5290 -0.7380
vn 0.0499 0.9775 0.2049
vn 0.0526 0.9776 0.2039
vn 0.0458 0.9774 0.2064
vn -0.4576 0.8019 0.3841
vn 0.5265 0.5540 -0.6449
vn 0.5262 0.5540 -0.6452
vn 0.5199 -0.0006 0.8543
vn 0.5211 -0.0013 0.8535
vn 0.5199 0.0000 0.8542
vn -0.1110 -0.0193 -0.9936
vn 0.1939 0.9709 0.1403
vn -0.0486 0.9723 0.2286
vn -0.0502 0.9722 0.2287
vn -0.0474 0.9724 0.2285
vn 0.2583 0.9613 0.0958
vn 0.7213 0.6038 -0.3394
vn -0.9500 0.3107 -0.0312
vn -0.9390 0.1258 0.3201
vn 0.8942 0.1531 -0.4207
vn 0.8126 0.4988 0.3015
vn -0.1789 0.5759 0.7977
vn 0.6709 0.5606 0.4854
vn 0.6267 0.1295 -0.7684
vn -0.9849 0.1069 0.1365
vn 0.4155 0.6113 0.6735
vn 0.4899 0.1232 -0.8631
vn 0.2519 0.1152 -0.9609
vn -0.1104 0.1067 -0.9881
vn 0.1613 0.6175 0.7699
vn -0.9911 0.1169 0.0643
vn -0.9928 0.0864 0.0827
vn -0.9235 0.1069 -0.3685
vn -0.9468 0.1731 0.2713
vn -0.8801 0.1051 -0.4630
vn 0.8725 0.1794 -0.4545
vn 0.8679 0.1455 -0.4749
vn 0.9161 0.3980 0.0480
vn 0.9273 0.2635 -0.2657
vn -0.9795 0.1058 0.1714
vn -0.6004 0.1026 -0.7931
vn -0.8195 0.3033 0.4862
vn 0.7749 0.1079 -0.6228
vn -0.5622 0.4583 0.6884
vn -0.9052 0.3305 0.2671
vn 0.6492 0.5536 -0.5217
vn 0.0000 1.0000 0.0000
vn -0.3706 -0.0000 -0.9288
vn -0.5838 -0.0000 -0.8119
vn -0.1958 0.9509 0.2398
vn 0.2050 -0.0055 0.9787
vn 0.7219 0.6074 -0.3315
vn -0.3996 0.8855 0.2370
vn -0.4752 0.3192 -0.8199
vn -0.9649 0.2011 0.1688
vn 0.3741 0.9251 0.0650
vn 0.2725 0.9543 0.1224
vn 0.7024 0.5296 -0.4755
vn 0.5125 0.8572 -0.0500
vn -0.8307 0.3449 -0.4370
vn -0.6595 0.7276 0.1890
vn -0.8766 0.3306 -0.3498
vn -0.9506 0.3001 0.0792
vn -0.9377 0.3419 0.0609
vn 0.0434 0.9773 0.2073
vn -0.1277 0.4106 -0.9028
vn 0.2287 0.4841 -0.8446
vn 0.4161 0.5290 -0.7396
vn 0.1128 0.9767 0.1828
vn -0.8509 0.5120 0.1180
vn 0.5266 0.5540 -0.6448
vn 0.5250 -0.0055 0.8511
vn 0.1189 0.9732 0.1967
vn -0.0513 0.9721 0.2288
vn 0.1873 0.9688 0.1622
vn 0.6117 0.5983 -0.5175
vn -0.8870 0.3491 0.3024
vn -0.9837 0.1603 0.0819
vn 0.6350 0.7488 -0.1901
usemtl マテリアル.002
s 1
f 1/1/1 3/2/1 2/3/1
f 4/4/2 6/5/2 5/6/2
f 7/7/3 9/8/3 8/9/3
f 10/10/4 12/11/4 11/12/4
f 13/13/5 15/14/5 14/15/5
f 16/16/6 17/17/7 10/10/8
f 18/18/9 20/19/9 19/20/9
f 11/12/4 21/21/4 10/10/4
f 22/22/10 24/23/10 23/24/10
f 25/25/11 27/26/11 26/27/11
f 7/7/12 29/28/12 28/29/12
f 30/30/13 32/31/13 31/32/13
f 33/33/14 35/34/14 34/35/14
f 36/36/15 2/3/15 37/37/15
f 38/38/16 40/39/16 39/40/16
f 41/41/17 43/42/17 42/43/17
f 44/44/18 46/45/18 45/46/18
f 47/47/19 49/48/19 48/49/19
f 50/50/20 52/51/20 51/52/20
f 34/35/21 53/53/21 22/22/21
f 54/54/2 55/55/2 6/5/2
f 18/18/22 29/28/22 56/56/22
f 57/57/23 59/58/23 58/59/23
f 41/41/24 61/60/24 60/61/24
f 62/62/25 47/47/25 63/63/25
f 64/64/26 65/65/26 47/47/26
f 8/9/3 66/66/3 7/7/3
f 10/10/8 67/67/8 16/16/6
f 68/68/18 45/46/18 33/33/18
f 58/59/27 70/69/27 69/70/27
f 11/12/28 71/71/28 8/9/28
f 47/47/29 72/72/29 63/63/29
f 5/6/30 44/44/30 68/68/30
f 73/73/31 74/74/31 25/25/31
f 48/49/32 76/75/32 75/76/32
f 63/63/29 77/77/29 60/61/29
f 42/43/33 79/78/34 78/79/33
f 80/80/35 81/81/35 57/57/35
f 38/82/36 83/83/36 82/84/36
f 84/85/37 79/78/37 85/86/37
f 86/87/38 87/88/38 13/13/38
f 75/76/39 88/89/39 31/32/39
f 31/32/13 15/90/13 30/30/13
f 64/64/9 89/91/9 19/20/9
f 84/85/40 86/87/40 90/92/40
f 91/93/41 37/37/41 92/94/41
f 93/95/42 94/96/42 83/83/42
f 85/86/40 95/97/40 86/87/40
f 24/23/10 96/98/10 61/60/10
f 97/99/43 99/100/43 98/101/43
f 100/102/44 101/103/44 94/96/44
f 31/32/39 102/104/39 75/76/39
f 103/105/45 105/106/45 104/107/45
f 79/78/37 106/108/37 85/86/37
f 39/40/46 108/109/46 107/110/46
f 48/49/19 109/111/19 47/47/19
f 60/61/25 62/62/25 63/63/25
f 107/112/47 111/113/48 110/114/49
f 60/61/17 112/115/17 43/42/17
f 110/114/50 114/116/51 113/117/52
f 18/18/22 115/118/22 28/29/22
f 116/119/53 117/120/54 105/106/55
f 118/121/56 92/94/56 99/100/56
f 19/20/9 119/122/9 18/18/9
f 113/117/57 121/123/58 120/124/58
f 8/9/28 122/125/28 11/12/28
f 4/126/59 16/16/60 54/54/61
f 90/127/62 13/13/62 14/15/62
f 16/16/60 123/128/61 54/54/61
f 124/129/63 117/130/63 125/131/63
f 126/132/64 104/133/65 3/2/66
f 69/70/67 127/134/67 124/129/67
f 120/124/68 128/135/68 73/73/68
f 129/136/69 51/52/69 101/103/69
f 49/48/70 50/50/70 129/136/70
f 42/43/71 73/73/71 41/41/71
f 68/68/72 124/129/72 5/6/72
f 12/11/73 103/137/73 126/132/73
f 5/6/74 125/131/74 4/4/74
f 78/79/75 120/124/75 42/43/75
f 56/56/76 91/93/76 118/121/76
f 4/126/77 116/119/77 130/138/77
f 84/85/78 113/117/78 78/79/78
f 90/92/79 110/114/79 84/85/79
f 14/15/80 107/110/80 90/127/80
f 17/17/81 116/119/81 103/105/81
f 76/75/82 129/136/82 100/102/82
f 20/19/83 118/121/83 97/99/83
f 88/89/84 100/102/84 93/95/84
f 29/28/85 36/36/85 91/93/85
f 15/90/86 93/95/86 38/82/86
f 22/22/87 57/57/87 34/35/87
f 41/41/88 25/25/88 131/139/88
f 33/33/89 69/70/89 68/68/89
f 34/35/90 58/59/90 33/33/90
f 65/65/91 132/140/91 50/50/91
f 15/14/92 39/40/92 14/15/92
f 66/66/93 1/1/93 36/36/93
f 131/139/94 26/27/94 23/24/94
f 71/71/95 126/132/95 1/1/95
f 23/24/94 80/80/94 22/22/94
f 133/141/83 97/99/83 132/140/83
f 35/34/21 134/142/21 53/53/21
f 132/140/96 98/101/96 52/51/96
f 26/27/97 135/143/97 80/80/97
f 23/24/10 61/60/10 131/139/10
f 53/53/10 136/144/10 24/23/10
f 19/20/9 133/141/9 64/64/9
f 105/106/98 127/134/98 3/2/98
f 137/145/25 21/21/25 122/125/25
f 138/146/25 89/91/25 139/147/25
f 140/148/25 115/118/25 141/149/25
f 72/72/25 143/150/25 142/151/25
f 141/149/25 119/122/25 138/146/25
f 140/148/25 9/8/25 144/152/25
f 145/153/25 122/125/25 9/8/25
f 142/151/25 102/104/25 146/154/25
f 146/154/25 32/31/25 147/155/25
f 147/155/25 148/156/25 87/88/25
f 95/97/25 147/155/25 87/88/25
f 106/108/25 146/154/25 147/155/25
f 149/157/25 142/151/25 146/154/25
f 55/55/25 145/153/25 150/158/25
f 150/158/25 140/148/25 46/45/25
f 134/142/25 141/149/25 138/146/25
f 112/115/25 72/72/25 142/151/25
f 46/45/25 141/149/25 151/159/25
f 136/144/25 138/146/25 139/147/25
f 123/128/25 137/145/25 55/55/25
f 96/98/25 139/147/25 152/160/25
f 139/147/25 153/161/25 152/160/25
f 62/62/99 153/161/99 64/64/99
f 43/42/33 149/157/34 79/78/34
f 45/46/14 151/159/14 35/34/14
f 75/76/32 143/150/32 48/49/32
f 61/60/99 152/160/99 62/62/99
f 28/29/12 144/152/12 7/7/12
f 13/13/100 148/156/100 30/30/100
f 6/5/30 150/158/30 44/44/30
f 1/1/101 126/132/101 3/2/101
f 4/4/2 54/54/2 6/5/2
f 7/7/3 144/152/3 9/8/3
f 10/10/4 17/162/4 12/11/4
f 13/13/100 30/30/100 15/14/100
f 16/16/6 130/138/102 17/17/7
f 18/18/9 56/56/9 20/19/9
f 11/12/4 122/125/4 21/21/4
f 22/22/10 53/53/10 24/23/10
f 25/25/103 74/74/103 27/26/103
f 7/7/12 66/66/12 29/28/12
f 30/30/13 148/156/13 32/31/13
f 33/33/14 45/46/14 35/34/14
f 36/36/104 1/1/104 2/3/104
f 38/38/105 82/163/105 40/39/105
f 41/41/17 60/61/17 43/42/17
f 44/44/18 150/158/18 46/45/18
f 47/47/19 65/65/19 49/48/19
f 50/50/106 132/140/106 52/51/106
f 34/35/21 35/34/21 53/53/21
f 54/54/2 123/128/2 55/55/2
f 18/18/22 28/29/22 29/28/22
f 57/57/107 81/81/107 59/58/107
f 41/41/24 131/139/24 61/60/24
f 62/62/25 64/64/25 47/47/25
f 64/64/26 133/141/26 65/65/26
f 8/9/3 71/71/3 66/66/3
f 10/10/8 21/21/8 67/67/8
f 68/68/18 44/44/18 45/46/18
f 58/59/108 59/58/108 70/69/108
f 11/12/28 12/11/28 71/71/28
f 47/47/29 109/111/29 72/72/29
f 5/6/30 6/5/30 44/44/30
f 73/73/109 128/135/109 74/74/109
f 48/49/32 49/48/32 76/75/32
f 63/63/29 72/72/29 77/77/29
f 42/43/33 43/42/33 79/78/34
f 80/80/110 135/143/110 81/81/110
f 38/82/111 93/95/111 83/83/111
f 84/85/37 78/79/37 79/78/37
f 86/87/38 95/97/38 87/88/38
f 75/76/39 76/75/39 88/89/39
f 31/32/13 88/89/13 15/90/13
f 64/64/9 153/161/9 89/91/9
f 84/85/40 85/86/40 86/87/40
f 91/93/112 36/36/112 37/37/112
f 93/95/113 100/102/113 94/96/113
f 85/86/40 106/108/40 95/97/40
f 24/23/10 136/144/10 96/98/10
f 97/99/114 118/121/114 99/100/114
f 100/102/115 129/136/115 101/103/115
f 31/32/39 32/31/39 102/104/39
f 103/105/116 116/119/53 105/106/55
f 79/78/37 149/157/37 106/108/37
f 39/40/117 40/39/117 108/109/117
f 48/49/19 143/150/19 109/111/19
f 60/61/25 61/60/25 62/62/25
f 107/112/47 108/164/118 111/113/48
f 60/61/17 77/77/17 112/115/17
f 110/114/50 111/113/119 114/116/51
f 18/18/22 119/122/22 115/118/22
f 116/119/120 125/165/120 117/120/120
f 118/121/121 91/93/121 92/94/121
f 19/20/9 89/91/9 119/122/9
f 113/117/57 114/116/122 121/123/58
f 8/9/28 9/8/28 122/125/28
f 4/126/59 130/138/123 16/16/60
f 90/127/38 86/87/38 13/13/38
f 16/16/60 67/67/61 123/128/61
f 124/129/124 127/134/124 117/130/124
f 126/132/64 103/137/125 104/133/65
f 69/70/126 70/69/126 127/134/126
f 120/124/127 121/123/127 128/135/127
f 129/136/128 50/50/128 51/52/128
f 49/48/70 65/65/70 50/50/70
f 42/43/71 120/124/71 73/73/71
f 68/68/72 69/70/72 124/129/72
f 12/11/73 17/162/73 103/137/73
f 5/6/74 124/129/74 125/131/74
f 78/79/75 113/117/75 120/124/75
f 56/56/76 29/28/76 91/93/76
f 4/126/77 125/165/77 116/119/77
f 84/85/78 110/114/78 113/117/78
f 90/92/79 107/112/79 110/114/79
f 14/15/80 39/40/80 107/110/80
f 17/17/81 130/138/81 116/119/81
f 76/75/82 49/48/82 129/136/82
f 20/19/83 56/56/83 118/121/83
f 88/89/84 76/75/84 100/102/84
f 29/28/85 66/66/85 36/36/85
f 15/90/86 88/89/86 93/95/86
f 22/22/87 80/80/87 57/57/87
f 41/41/88 73/73/88 25/25/88
f 33/33/89 58/59/89 69/70/89
f 34/35/90 57/57/90 58/59/90
f 65/65/91 133/141/91 132/140/91
f 15/14/92 38/38/92 39/40/92
f 66/66/93 71/71/93 1/1/93
f 131/139/94 25/25/94 26/27/94
f 71/71/95 12/11/95 126/132/95
f 23/24/94 26/27/94 80/80/94
f 133/141/83 20/19/83 97/99/83
f 35/34/21 151/159/21 134/142/21
f 132/140/129 97/99/129 98/101/129
f 26/27/130 27/26/130 135/143/130
f 23/24/10 24/23/10 61/60/10
f 53/53/10 134/142/10 136/144/10
f 19/20/9 20/19/9 133/141/9
f 108/109/98 40/39/98 83/83/98
f 40/39/98 82/84/98 83/83/98
f 83/83/98 94/96/98 114/116/98
f 94/96/98 101/103/98 114/116/98
f 114/116/98 111/113/98 83/83/98
f 111/113/98 108/109/98 83/83/98
f 128/135/98 121/123/98 51/52/98
f 121/123/98 114/116/98 101/103/98
f 51/52/98 121/123/98 101/103/98
f 27/26/98 74/74/98 98/101/98
f 74/74/98 128/135/98 52/51/98
f 52/51/98 128/135/98 51/52/98
f 81/81/98 135/143/98 99/100/98
f 135/143/98 27/26/98 98/101/98
f 81/81/98 99/100/98 92/94/98
f 70/69/98 59/58/98 3/2/98
f 59/58/98 81/81/98 92/94/98
f 117/130/98 127/134/98 105/106/98
f 127/134/98 70/69/98 3/2/98
f 105/106/98 3/2/98 104/107/98
f 2/3/98 3/2/98 59/58/98
f 92/94/98 37/37/98 59/58/98
f 37/37/98 2/3/98 59/58/98
f 98/101/98 99/100/98 135/143/98
f 52/51/98 98/101/98 74/74/98
f 137/145/25 67/67/25 21/21/25
f 138/146/25 119/122/25 89/91/25
f 140/148/25 144/152/25 115/118/25
f 72/72/25 109/111/25 143/150/25
f 141/149/25 115/118/25 119/122/25
f 140/148/25 145/153/25 9/8/25
f 145/153/25 137/145/25 122/125/25
f 142/151/25 143/150/25 102/104/25
f 146/154/25 102/104/25 32/31/25
f 147/155/25 32/31/25 148/156/25
f 95/97/25 106/108/25 147/155/25
f 106/108/25 149/157/25 146/154/25
f 149/157/25 112/115/25 142/151/25
f 55/55/25 137/145/25 145/153/25
f 150/158/25 145/153/25 140/148/25
f 134/142/25 151/159/25 141/149/25
f 112/115/25 77/77/25 72/72/25
f 46/45/25 140/148/25 141/149/25
f 136/144/25 134/142/25 138/146/25
f 123/128/25 67/67/25 137/145/25
f 96/98/25 136/144/25 139/147/25
f 139/147/25 89/91/25 153/161/25
f 62/62/99 152/160/99 153/161/99
f 43/42/33 112/115/33 149/157/34
f 45/46/14 46/45/14 151/159/14
f 75/76/32 102/104/32 143/150/32
f 61/60/99 96/98/99 152/160/99
f 28/29/12 115/118/12 144/152/12
f 13/13/100 87/88/100 148/156/100
f 6/5/30 55/55/30 150/158/30
