# Blender v3.3.1 OBJ File: 'keyParts.blend'
# www.blender.org
mtllib keyParts1.mtl
o parts1_円柱.001
v 0.000000 0.336921 0.061890
v 0.000000 0.336921 -0.061897
v -0.032326 0.333737 0.061890
v -0.032326 0.333737 -0.061897
v -0.063409 0.324308 0.061890
v -0.063409 0.324308 -0.061897
v -0.092055 0.308996 0.061890
v -0.092055 0.308996 -0.061897
v -0.117164 0.288390 0.061890
v -0.117164 0.288390 -0.061897
v -0.137771 0.263281 0.061890
v -0.137771 0.263281 -0.061897
v -0.153082 0.234634 0.061890
v -0.153082 0.234634 -0.061897
v -0.162511 0.203551 0.061890
v -0.162511 0.203551 -0.061897
v -0.165695 0.171226 0.061890
v -0.165695 0.171226 -0.061897
v -0.162511 0.138900 0.061890
v -0.162511 0.138900 -0.061897
v -0.153082 0.107817 0.061890
v -0.153082 0.107817 -0.061897
v -0.137771 0.079170 0.061890
v -0.137771 0.079170 -0.061897
v -0.117164 0.054061 0.061890
v -0.117164 0.054061 -0.061897
v -0.092055 0.033455 0.061890
v -0.092055 0.033455 -0.061897
v -0.063409 0.018143 0.061890
v -0.063409 0.018143 -0.061897
v -0.032326 0.008714 0.061890
v -0.032326 0.008714 -0.061897
v 0.000000 0.005530 0.061890
v 0.000000 0.005530 -0.061897
v 0.032326 0.008714 0.061890
v 0.032326 0.008714 -0.061897
v 0.063409 0.018143 0.061890
v 0.063409 0.018143 -0.061897
v 0.092055 0.033455 0.061890
v 0.092055 0.033455 -0.061897
v 0.117164 0.054061 0.061890
v 0.117164 0.054061 -0.061897
v 0.137771 0.079170 0.061890
v 0.137771 0.079170 -0.061897
v 0.153082 0.107817 0.061890
v 0.153082 0.107817 -0.061897
v 0.162511 0.138900 0.061890
v 0.162511 0.138900 -0.061897
v 0.165695 0.171226 0.061890
v 0.165695 0.171226 -0.061897
v 0.162511 0.203551 0.061890
v 0.162511 0.203551 -0.061897
v 0.153082 0.234634 0.061890
v 0.153082 0.234634 -0.061897
v 0.137771 0.263281 0.061890
v 0.137771 0.263281 -0.061897
v 0.117164 0.288390 0.061890
v 0.117164 0.288390 -0.061897
v 0.092055 0.308996 0.061890
v 0.092055 0.308996 -0.061897
v 0.063409 0.324308 0.061890
v 0.063409 0.324308 -0.061897
v 0.032326 0.333737 0.061890
v 0.032326 0.333737 -0.061897
v 0.000000 0.304200 0.061907
v -0.025942 0.301645 0.061907
v -0.050887 0.294078 0.061907
v -0.073877 0.281790 0.061907
v -0.094027 0.265253 0.061907
v -0.110564 0.245102 0.061907
v -0.122853 0.222113 0.061907
v -0.130420 0.197168 0.061907
v -0.132975 0.171226 0.061907
v -0.130420 0.145283 0.061907
v -0.122853 0.120338 0.061907
v -0.110564 0.097349 0.061907
v -0.094027 0.077198 0.061907
v -0.073877 0.060661 0.061907
v -0.050887 0.048373 0.061907
v -0.025942 0.040806 0.061907
v 0.000000 0.038251 0.061907
v 0.025942 0.040806 0.061907
v 0.050887 0.048373 0.061907
v 0.073877 0.060661 0.061907
v 0.094027 0.077198 0.061907
v 0.110564 0.097349 0.061907
v 0.122853 0.120338 0.061907
v 0.130420 0.145283 0.061907
v 0.132975 0.171226 0.061907
v 0.130420 0.197168 0.061907
v 0.122853 0.222113 0.061907
v 0.110564 0.245102 0.061907
v 0.094027 0.265253 0.061907
v 0.073877 0.281790 0.061907
v 0.050887 0.294078 0.061907
v 0.025942 0.301645 0.061907
v 0.000000 0.304200 -0.061896
v -0.025942 0.301645 -0.061896
v -0.050887 0.294078 -0.061896
v -0.073877 0.281790 -0.061896
v -0.094027 0.265253 -0.061896
v -0.110564 0.245102 -0.061896
v -0.122853 0.222113 -0.061896
v -0.130420 0.197168 -0.061896
v -0.132975 0.171226 -0.061896
v -0.130420 0.145284 -0.061896
v -0.122853 0.120338 -0.061896
v -0.110564 0.097349 -0.061896
v -0.094027 0.077198 -0.061896
v -0.073877 0.060661 -0.061896
v -0.050887 0.048373 -0.061896
v -0.025942 0.040806 -0.061896
v 0.000000 0.038251 -0.061896
v 0.025942 0.040806 -0.061896
v 0.050887 0.048373 -0.061896
v 0.073877 0.060661 -0.061896
v 0.094027 0.077198 -0.061896
v 0.110564 0.097349 -0.061896
v 0.122853 0.120338 -0.061896
v 0.130420 0.145284 -0.061896
v 0.132975 0.171226 -0.061896
v 0.130420 0.197168 -0.061896
v 0.122853 0.222113 -0.061896
v 0.110564 0.245102 -0.061896
v 0.094027 0.265253 -0.061896
v 0.073877 0.281790 -0.061896
v 0.050887 0.294078 -0.061896
v 0.025942 0.301645 -0.061896
v 0.446171 -0.175464 -0.097620
v 0.445774 -0.155062 -0.097620
v 0.446171 -0.175464 0.097610
v 0.445774 -0.155062 0.097610
v -0.446171 -0.175464 -0.097620
v -0.445774 -0.155062 -0.097620
v -0.446171 -0.175464 0.097610
v -0.445774 -0.155062 0.097610
v 0.244087 -0.091607 -0.097620
v 0.244087 -0.091607 0.097610
v -0.244087 -0.091607 -0.097620
v -0.244087 -0.091607 0.097610
v 0.184877 -0.028304 -0.097620
v 0.184877 -0.028304 0.097610
v -0.184877 -0.028304 -0.097620
v -0.184877 -0.028304 0.097610
v 0.089467 -0.028270 -0.097620
v 0.089467 -0.028270 0.097610
v -0.089467 -0.028270 -0.097620
v -0.089467 -0.028270 0.097610
v 0.065187 0.021995 -0.097620
v 0.065187 0.021995 0.097610
v -0.065187 0.021995 -0.097620
v -0.065187 0.021995 0.097610
vt 1.000000 1.000000
vt 0.968750 0.500000
vt 1.000000 0.500000
vt 0.968750 1.000000
vt 0.937500 0.500000
vt 0.906250 1.000000
vt 0.906250 0.500000
vt 0.875000 0.500000
vt 0.875000 1.000000
vt 0.843750 0.500000
vt 0.843750 1.000000
vt 0.812500 0.500000
vt 0.812500 1.000000
vt 0.781250 0.500000
vt 0.781250 1.000000
vt 0.750000 0.500000
vt 0.750000 1.000000
vt 0.718750 0.500000
vt 0.718750 1.000000
vt 0.687500 0.500000
vt 0.687500 1.000000
vt 0.656250 0.500000
vt 0.656250 1.000000
vt 0.625000 0.500000
vt 0.625000 1.000000
vt 0.593750 0.500000
vt 0.593750 1.000000
vt 0.562500 0.500000
vt 0.562500 1.000000
vt 0.531250 0.500000
vt 0.531250 1.000000
vt 0.500000 0.500000
vt 0.500000 1.000000
vt 0.468750 0.500000
vt 0.468750 1.000000
vt 0.437500 0.500000
vt 0.437500 1.000000
vt 0.406250 0.500000
vt 0.406250 1.000000
vt 0.375000 0.500000
vt 0.375000 1.000000
vt 0.343750 0.500000
vt 0.343750 1.000000
vt 0.312500 0.500000
vt 0.312500 1.000000
vt 0.281250 0.500000
vt 0.281250 1.000000
vt 0.250000 0.500000
vt 0.250000 1.000000
vt 0.218750 0.500000
vt 0.218750 1.000000
vt 0.187500 0.500000
vt 0.187500 1.000000
vt 0.156250 0.500000
vt 0.156250 1.000000
vt 0.125000 0.500000
vt 0.125000 1.000000
vt 0.093750 0.500000
vt 0.093750 1.000000
vt 0.062500 0.500000
vt 0.843750 1.000000
vt 0.812500 1.000000
vt 0.062500 1.000000
vt 0.031250 0.500000
vt 0.031250 1.000000
vt 0.000000 0.500000
vt 0.250000 0.500000
vt 0.281250 0.500000
vt 0.937500 0.500000
vt 0.968750 0.500000
vt 0.656250 0.500000
vt 0.687500 0.500000
vt 0.375000 0.500000
vt 0.406250 0.500000
vt 0.093750 0.500000
vt 0.125000 0.500000
vt 0.812500 0.500000
vt 0.531250 0.500000
vt 0.906250 0.500000
vt 0.343750 0.500000
vt 0.750000 0.500000
vt 0.781250 0.500000
vt 0.468750 0.500000
vt 0.500000 0.500000
vt 0.187500 0.500000
vt 0.218750 0.500000
vt 0.625000 0.500000
vt 0.031250 0.500000
vt 0.062500 0.500000
vt 0.156250 0.500000
vt 0.875000 0.500000
vt 0.562500 0.500000
vt 0.593750 0.500000
vt 0.312500 0.500000
vt 1.000000 0.500000
vt 0.718750 0.500000
vt 0.437500 0.500000
vt 0.843750 0.500000
vt 0.562500 1.000000
vt 0.531250 1.000000
vt 0.281250 1.000000
vt 0.250000 1.000000
vt 0.937500 1.000000
vt 0.937500 1.000000
vt 0.656250 1.000000
vt 0.375000 1.000000
vt 0.093750 1.000000
vt 0.781250 1.000000
vt 0.500000 1.000000
vt 0.218750 1.000000
vt 0.906250 1.000000
vt 0.625000 1.000000
vt 0.343750 1.000000
vt 0.062500 1.000000
vt 0.750000 1.000000
vt 0.468750 1.000000
vt 0.187500 1.000000
vt 0.875000 1.000000
vt 0.593750 1.000000
vt 0.312500 1.000000
vt 0.031250 1.000000
vt 0.718750 1.000000
vt 0.437500 1.000000
vt 0.156250 1.000000
vt 1.000000 1.000000
vt 0.968750 1.000000
vt 0.000000 1.000000
vt 0.000000 1.000000
vt 0.687500 1.000000
vt 0.406250 1.000000
vt 0.125000 1.000000
vt 0.000000 0.500000
vt 0.625000 0.000000
vt 0.375000 0.250000
vt 0.375000 0.000000
vt 0.625000 0.250000
vt 0.375000 0.500000
vt 0.625000 0.500000
vt 0.375000 0.750000
vt 0.625000 0.750000
vt 0.375000 1.000000
vt 0.125000 0.750000
vt 0.125000 0.500000
vt 0.625000 1.000000
vt 0.625000 1.000000
vt 0.625000 0.500000
vt 0.625000 0.750000
vt 0.625000 0.750000
vt 0.625000 0.250000
vt 0.625000 0.500000
vt 0.625000 0.750000
vt 0.625000 0.000000
vt 0.625000 0.250000
vt 0.625000 1.000000
vt 0.625000 1.000000
vt 0.625000 1.000000
vt 0.625000 0.250000
vt 0.625000 0.500000
vt 0.875000 0.500000
vt 0.625000 0.750000
vt 0.625000 0.500000
vt 0.625000 0.000000
vt 0.625000 0.250000
vt 0.625000 0.000000
vt 0.875000 0.750000
vt 0.625000 0.000000
vn -0.0980 0.9952 0.0000
vn -0.2903 0.9569 0.0000
vn -0.4714 0.8819 0.0000
vn -0.6344 0.7730 0.0000
vn -0.7730 0.6344 0.0000
vn -0.8819 0.4714 0.0000
vn -0.9569 0.2903 0.0000
vn -0.9952 0.0980 0.0000
vn -0.9952 -0.0980 -0.0000
vn -0.9569 -0.2903 0.0000
vn -0.8819 -0.4714 -0.0000
vn -0.7730 -0.6344 0.0000
vn -0.6344 -0.7730 0.0000
vn -0.4714 -0.8819 0.0000
vn -0.2903 -0.9569 0.0000
vn -0.0980 -0.9952 0.0000
vn 0.0980 -0.9952 0.0000
vn 0.2903 -0.9569 0.0000
vn 0.4714 -0.8819 0.0000
vn 0.6344 -0.7730 0.0000
vn 0.7730 -0.6344 0.0000
vn 0.8819 -0.4714 0.0000
vn 0.9569 -0.2903 -0.0000
vn 0.9952 -0.0980 0.0000
vn 0.9952 0.0980 0.0000
vn 0.9569 0.2903 0.0000
vn 0.8819 0.4714 0.0000
vn 0.7730 0.6344 0.0000
vn 0.6344 0.7730 0.0000
vn 0.4714 0.8819 0.0000
vn 0.0000 -0.0000 -1.0000
vn 0.2903 0.9569 0.0000
vn 0.0980 0.9952 0.0000
vn 0.0005 -0.0001 1.0000
vn -0.0002 0.0005 1.0000
vn -0.0005 -0.0002 1.0000
vn 0.0003 -0.0004 1.0000
vn 0.0003 0.0004 1.0000
vn -0.0005 0.0002 1.0000
vn -0.0001 -0.0005 1.0000
vn 0.0005 0.0001 1.0000
vn -0.0004 -0.0003 1.0000
vn 0.0004 -0.0003 1.0000
vn 0.0002 0.0005 1.0000
vn -0.0005 0.0001 1.0000
vn 0.0001 -0.0005 1.0000
vn 0.0005 0.0002 1.0000
vn -0.0003 0.0004 1.0000
vn -0.0003 -0.0004 1.0000
vn 0.0005 -0.0002 1.0000
vn -0.0005 -0.0001 1.0000
vn 0.0002 -0.0005 1.0000
vn -0.0004 0.0003 1.0000
vn -0.0002 -0.0005 1.0000
vn -0.0001 0.0005 1.0000
vn 0.0001 0.0005 1.0000
vn 0.0004 0.0003 1.0000
vn 0.9998 0.0194 0.0000
vn 0.0000 -0.0000 1.0000
vn -0.9998 0.0194 0.0000
vn 0.0000 -1.0000 0.0000
vn -0.7303 0.6831 -0.0000
vn -0.3001 0.9539 0.0000
vn 0.3001 0.9539 0.0000
vn -0.0004 1.0000 -0.0000
vn 0.7303 0.6831 -0.0000
vn 0.0004 1.0000 -0.0000
vn 0.0000 1.0000 -0.0000
vn -0.9004 0.4350 -0.0000
vn 0.9004 0.4350 -0.0000
usemtl マテリアル
s off
f 2/1/1 3/2/1 1/3/1
f 4/4/2 5/5/2 3/2/2
f 5/5/3 8/6/3 7/7/3
f 8/6/4 9/8/4 7/7/4
f 10/9/5 11/10/5 9/8/5
f 12/11/6 13/12/6 11/10/6
f 14/13/7 15/14/7 13/12/7
f 16/15/8 17/16/8 15/14/8
f 18/17/9 19/18/9 17/16/9
f 20/19/10 21/20/10 19/18/10
f 22/21/11 23/22/11 21/20/11
f 24/23/12 25/24/12 23/22/12
f 26/25/13 27/26/13 25/24/13
f 28/27/14 29/28/14 27/26/14
f 30/29/15 31/30/15 29/28/15
f 32/31/16 33/32/16 31/30/16
f 34/33/17 35/34/17 33/32/17
f 36/35/18 37/36/18 35/34/18
f 38/37/19 39/38/19 37/36/19
f 40/39/20 41/40/20 39/38/20
f 42/41/21 43/42/21 41/40/21
f 44/43/22 45/44/22 43/42/22
f 46/45/23 47/46/23 45/44/23
f 48/47/24 49/48/24 47/46/24
f 50/49/25 51/50/25 49/48/25
f 52/51/26 53/52/26 51/50/26
f 54/53/27 55/54/27 53/52/27
f 56/55/28 57/56/28 55/54/28
f 58/57/29 59/58/29 57/56/29
f 60/59/30 61/60/30 59/58/30
f 14/13/31 102/61/31 103/62/31
f 62/63/32 63/64/32 61/60/32
f 64/65/33 1/66/33 63/64/33
f 47/46/34 89/67/34 88/68/34
f 3/2/35 67/69/35 66/70/35
f 21/20/36 76/71/36 75/72/36
f 39/38/37 85/73/37 84/74/37
f 57/56/38 94/75/38 93/76/38
f 15/14/39 71/77/39 13/12/39
f 33/32/40 80/78/40 31/30/40
f 51/50/41 89/67/41 49/48/41
f 5/5/35 68/79/35 67/69/35
f 25/24/42 76/71/42 23/22/42
f 41/40/43 86/80/43 85/73/43
f 61/60/44 94/75/44 59/58/44
f 15/14/45 73/81/45 72/82/45
f 33/32/46 82/83/46 81/84/46
f 51/50/47 91/85/47 90/86/47
f 9/8/48 68/79/48 7/7/48
f 27/26/49 77/87/49 25/24/49
f 45/44/50 86/80/50 43/42/50
f 61/60/44 96/88/44 95/89/44
f 19/18/51 73/81/51 17/16/51
f 37/36/52 82/83/52 35/34/52
f 53/52/47 92/90/47 91/85/47
f 11/10/53 69/91/53 9/8/53
f 27/26/54 79/92/54 78/93/54
f 47/46/50 87/94/50 45/44/50
f 1/3/55 66/70/55 65/95/55
f 1/66/56 96/88/56 63/64/56
f 21/20/36 74/96/36 19/18/36
f 39/38/52 83/97/52 37/36/52
f 55/54/57 93/76/57 92/90/57
f 13/12/39 70/98/39 11/10/39
f 29/28/54 80/78/54 79/92/54
f 32/31/31 111/99/31 112/100/31
f 50/49/31 120/101/31 121/102/31
f 4/4/31 99/103/31 6/104/31
f 22/21/31 108/105/31 24/23/31
f 40/39/31 117/106/31 42/41/31
f 58/57/31 126/107/31 60/59/31
f 16/15/31 103/62/31 104/108/31
f 32/31/31 113/109/31 34/33/31
f 50/49/31 122/110/31 52/51/31
f 8/6/31 99/103/31 100/111/31
f 24/23/31 109/112/31 26/25/31
f 44/43/31 117/106/31 118/113/31
f 60/59/31 127/114/31 62/63/31
f 18/17/31 104/108/31 105/115/31
f 36/35/31 113/109/31 114/116/31
f 52/51/31 123/117/31 54/53/31
f 10/9/31 100/111/31 101/118/31
f 28/27/31 109/112/31 110/119/31
f 46/45/31 118/113/31 119/120/31
f 64/65/31 127/114/31 128/121/31
f 18/17/31 106/122/31 20/19/31
f 36/35/31 115/123/31 38/37/31
f 54/53/31 124/124/31 56/55/31
f 10/9/31 102/61/31 12/11/31
f 28/27/31 111/99/31 30/29/31
f 48/47/31 119/120/31 120/101/31
f 4/4/31 97/125/31 98/126/31
f 64/65/31 97/127/31 2/128/31
f 20/19/31 107/129/31 22/21/31
f 40/39/31 115/123/31 116/130/31
f 56/55/31 125/131/31 58/57/31
f 82/83/1 113/109/1 81/84/1
f 83/97/2 114/116/2 82/83/2
f 84/74/3 115/123/3 83/97/3
f 85/73/4 116/130/4 84/74/4
f 86/80/5 117/106/5 85/73/5
f 87/94/6 118/113/6 86/80/6
f 88/68/7 119/120/7 87/94/7
f 89/67/8 120/101/8 88/68/8
f 90/86/9 121/102/9 89/67/9
f 91/85/10 122/110/10 90/86/10
f 92/90/11 123/117/11 91/85/11
f 93/76/12 124/124/12 92/90/12
f 94/75/13 125/131/13 93/76/13
f 95/89/14 126/107/14 94/75/14
f 96/88/15 127/114/15 95/89/15
f 65/132/16 128/121/16 96/88/16
f 66/70/17 97/127/17 65/132/17
f 67/69/18 98/126/18 66/70/18
f 68/79/19 99/103/19 67/69/19
f 69/91/20 100/111/20 68/79/20
f 70/98/21 101/118/21 69/91/21
f 71/77/22 102/61/22 70/98/22
f 72/82/23 103/62/23 71/77/23
f 73/81/24 104/108/24 72/82/24
f 74/96/25 105/115/25 73/81/25
f 75/72/26 106/122/26 74/96/26
f 76/71/27 107/129/27 75/72/27
f 77/87/28 108/105/28 76/71/28
f 78/93/29 109/112/29 77/87/29
f 79/92/30 110/119/30 78/93/30
f 80/78/32 111/99/32 79/92/32
f 81/84/33 112/100/33 80/78/33
f 130/133/58 131/134/58 129/135/58
f 132/136/59 135/137/59 131/134/59
f 136/138/60 133/139/60 135/137/60
f 134/140/31 129/141/31 133/139/31
f 135/137/61 129/142/61 131/143/61
f 134/140/31 137/144/31 130/145/31
f 140/146/62 143/147/62 139/148/62
f 132/136/59 140/146/59 136/138/59
f 136/138/63 139/148/63 134/140/63
f 130/133/64 138/149/64 132/136/64
f 144/150/65 147/151/65 143/147/65
f 138/149/66 141/152/66 142/153/66
f 137/144/31 143/147/31 141/154/31
f 140/146/59 142/153/59 144/150/59
f 147/151/31 149/155/31 145/156/31
f 141/152/67 146/157/67 142/153/67
f 143/147/31 145/156/31 141/154/31
f 142/153/59 148/158/59 144/150/59
f 150/159/68 151/160/68 152/161/68
f 146/157/59 152/161/59 148/158/59
f 148/158/69 151/160/69 147/151/69
f 145/162/70 150/163/70 146/157/70
f 2/1/1 4/4/1 3/2/1
f 4/4/2 6/104/2 5/5/2
f 5/5/3 6/104/3 8/6/3
f 8/6/4 10/9/4 9/8/4
f 10/9/5 12/11/5 11/10/5
f 12/11/6 14/13/6 13/12/6
f 14/13/7 16/15/7 15/14/7
f 16/15/8 18/17/8 17/16/8
f 18/17/9 20/19/9 19/18/9
f 20/19/10 22/21/10 21/20/10
f 22/21/11 24/23/11 23/22/11
f 24/23/12 26/25/12 25/24/12
f 26/25/13 28/27/13 27/26/13
f 28/27/14 30/29/14 29/28/14
f 30/29/15 32/31/15 31/30/15
f 32/31/16 34/33/16 33/32/16
f 34/33/17 36/35/17 35/34/17
f 36/35/18 38/37/18 37/36/18
f 38/37/19 40/39/19 39/38/19
f 40/39/20 42/41/20 41/40/20
f 42/41/21 44/43/21 43/42/21
f 44/43/22 46/45/22 45/44/22
f 46/45/23 48/47/23 47/46/23
f 48/47/24 50/49/24 49/48/24
f 50/49/25 52/51/25 51/50/25
f 52/51/26 54/53/26 53/52/26
f 54/53/27 56/55/27 55/54/27
f 56/55/28 58/57/28 57/56/28
f 58/57/29 60/59/29 59/58/29
f 60/59/30 62/63/30 61/60/30
f 14/13/31 12/11/31 102/61/31
f 62/63/32 64/65/32 63/64/32
f 64/65/33 2/128/33 1/66/33
f 47/46/34 49/48/34 89/67/34
f 3/2/35 5/5/35 67/69/35
f 21/20/36 23/22/36 76/71/36
f 39/38/37 41/40/37 85/73/37
f 57/56/38 59/58/38 94/75/38
f 15/14/39 72/82/39 71/77/39
f 33/32/40 81/84/40 80/78/40
f 51/50/41 90/86/41 89/67/41
f 5/5/35 7/7/35 68/79/35
f 25/24/42 77/87/42 76/71/42
f 41/40/43 43/42/43 86/80/43
f 61/60/44 95/89/44 94/75/44
f 15/14/45 17/16/45 73/81/45
f 33/32/46 35/34/46 82/83/46
f 51/50/47 53/52/47 91/85/47
f 9/8/48 69/91/48 68/79/48
f 27/26/49 78/93/49 77/87/49
f 45/44/50 87/94/50 86/80/50
f 61/60/44 63/64/44 96/88/44
f 19/18/51 74/96/51 73/81/51
f 37/36/52 83/97/52 82/83/52
f 53/52/47 55/54/47 92/90/47
f 11/10/53 70/98/53 69/91/53
f 27/26/54 29/28/54 79/92/54
f 47/46/50 88/68/50 87/94/50
f 1/3/55 3/2/55 66/70/55
f 1/66/56 65/132/56 96/88/56
f 21/20/36 75/72/36 74/96/36
f 39/38/52 84/74/52 83/97/52
f 55/54/57 57/56/57 93/76/57
f 13/12/39 71/77/39 70/98/39
f 29/28/54 31/30/54 80/78/54
f 32/31/31 30/29/31 111/99/31
f 50/49/31 48/47/31 120/101/31
f 4/4/31 98/126/31 99/103/31
f 22/21/31 107/129/31 108/105/31
f 40/39/31 116/130/31 117/106/31
f 58/57/31 125/131/31 126/107/31
f 16/15/31 14/13/31 103/62/31
f 32/31/31 112/100/31 113/109/31
f 50/49/31 121/102/31 122/110/31
f 8/6/31 6/104/31 99/103/31
f 24/23/31 108/105/31 109/112/31
f 44/43/31 42/41/31 117/106/31
f 60/59/31 126/107/31 127/114/31
f 18/17/31 16/15/31 104/108/31
f 36/35/31 34/33/31 113/109/31
f 52/51/31 122/110/31 123/117/31
f 10/9/31 8/6/31 100/111/31
f 28/27/31 26/25/31 109/112/31
f 46/45/31 44/43/31 118/113/31
f 64/65/31 62/63/31 127/114/31
f 18/17/31 105/115/31 106/122/31
f 36/35/31 114/116/31 115/123/31
f 54/53/31 123/117/31 124/124/31
f 10/9/31 101/118/31 102/61/31
f 28/27/31 110/119/31 111/99/31
f 48/47/31 46/45/31 119/120/31
f 4/4/31 2/1/31 97/125/31
f 64/65/31 128/121/31 97/127/31
f 20/19/31 106/122/31 107/129/31
f 40/39/31 38/37/31 115/123/31
f 56/55/31 124/124/31 125/131/31
f 82/83/1 114/116/1 113/109/1
f 83/97/2 115/123/2 114/116/2
f 84/74/3 116/130/3 115/123/3
f 85/73/4 117/106/4 116/130/4
f 86/80/5 118/113/5 117/106/5
f 87/94/6 119/120/6 118/113/6
f 88/68/7 120/101/7 119/120/7
f 89/67/8 121/102/8 120/101/8
f 90/86/9 122/110/9 121/102/9
f 91/85/10 123/117/10 122/110/10
f 92/90/11 124/124/11 123/117/11
f 93/76/12 125/131/12 124/124/12
f 94/75/13 126/107/13 125/131/13
f 95/89/14 127/114/14 126/107/14
f 96/88/15 128/121/15 127/114/15
f 65/132/16 97/127/16 128/121/16
f 66/70/17 98/126/17 97/127/17
f 67/69/18 99/103/18 98/126/18
f 68/79/19 100/111/19 99/103/19
f 69/91/20 101/118/20 100/111/20
f 70/98/21 102/61/21 101/118/21
f 71/77/22 103/62/22 102/61/22
f 72/82/23 104/108/23 103/62/23
f 73/81/24 105/115/24 104/108/24
f 74/96/25 106/122/25 105/115/25
f 75/72/26 107/129/26 106/122/26
f 76/71/27 108/105/27 107/129/27
f 77/87/28 109/112/28 108/105/28
f 78/93/29 110/119/29 109/112/29
f 79/92/30 111/99/30 110/119/30
f 80/78/32 112/100/32 111/99/32
f 81/84/33 113/109/33 112/100/33
f 130/133/58 132/136/58 131/134/58
f 132/136/59 136/138/59 135/137/59
f 136/138/60 134/140/60 133/139/60
f 134/140/31 130/145/31 129/141/31
f 135/137/61 133/139/61 129/142/61
f 134/140/31 139/148/31 137/144/31
f 140/146/62 144/150/62 143/147/62
f 132/136/59 138/149/59 140/146/59
f 136/138/63 140/146/63 139/148/63
f 130/133/64 137/164/64 138/149/64
f 144/150/65 148/158/65 147/151/65
f 138/149/66 137/164/66 141/152/66
f 137/144/31 139/148/31 143/147/31
f 140/146/59 138/149/59 142/153/59
f 147/151/31 151/160/31 149/155/31
f 141/152/67 145/162/67 146/157/67
f 143/147/31 147/151/31 145/156/31
f 142/153/59 146/157/59 148/158/59
f 150/159/68 149/165/68 151/160/68
f 146/157/59 150/163/59 152/161/59
f 148/158/69 152/161/69 151/160/69
f 145/162/70 149/166/70 150/163/70
