# Blender v3.3.1 OBJ File: 'keyParts.blend'
# www.blender.org
mtllib keyParts3.mtl
o parts3_立方体.001
v 0.283390 -0.013418 -0.097616
v 0.283390 0.086351 -0.097616
v 0.283390 -0.013418 0.097614
v 0.283390 0.086351 0.097614
v -0.283390 -0.013418 -0.097616
v -0.283390 0.086351 -0.097616
v -0.283390 -0.013418 0.097614
v -0.283390 0.086351 0.097614
v -0.000000 -0.013418 0.097614
v -0.000000 0.086351 0.097614
v -0.000000 -0.013418 -0.097616
v -0.000000 0.086351 -0.097616
v 0.223014 -0.013418 0.097614
v 0.223014 0.086351 -0.097616
v 0.223014 0.086351 0.097614
v 0.223014 -0.013418 -0.097616
v -0.223014 0.086351 0.097614
v -0.223014 -0.013418 -0.097616
v -0.223014 -0.013418 0.097614
v -0.223014 0.086351 -0.097616
v 0.166291 -0.085555 -0.061893
v 0.166291 -0.085555 0.061894
v -0.166291 -0.085555 -0.061893
v -0.166291 -0.085555 0.061894
v -0.000000 -0.085555 0.061894
v -0.000000 -0.085555 -0.061893
v 0.083145 -0.085555 0.061894
v 0.083145 -0.085555 -0.061893
v -0.083145 -0.085555 -0.061893
v -0.083145 -0.085555 0.061894
v 0.041573 -0.085555 -0.061893
v 0.041573 -0.085555 0.061894
v -0.041573 -0.085555 0.061894
v -0.041573 -0.085555 -0.061893
v 0.193509 -0.013418 -0.061893
v 0.193509 -0.013418 0.061894
v -0.096754 -0.013418 0.061894
v -0.193509 -0.013418 0.061894
v -0.193509 -0.013418 -0.061893
v 0.096754 -0.013418 -0.061893
v -0.048377 -0.013418 -0.061893
v -0.000000 -0.013418 -0.061893
v 0.048377 -0.013418 0.061894
v -0.000000 -0.013418 0.061894
v 0.096754 -0.013418 0.061894
v 0.048377 -0.013418 -0.061893
v -0.096754 -0.013418 -0.061893
v -0.048377 -0.013418 0.061894
vt 0.625000 0.000000
vt 0.375000 0.250000
vt 0.375000 0.000000
vt 0.625000 0.438368
vt 0.375000 0.500000
vt 0.375000 0.438368
vt 0.625000 0.500000
vt 0.375000 0.750000
vt 0.625000 0.938368
vt 0.375000 1.000000
vt 0.375000 0.938368
vt 0.313368 0.750000
vt 0.313368 0.500000
vt 0.875000 0.500000
vt 0.813368 0.750000
vt 0.813368 0.500000
vt 0.750000 0.500000
vt 0.686632 0.750000
vt 0.686632 0.500000
vt 0.250000 0.500000
vt 0.186632 0.750000
vt 0.186632 0.500000
vt 0.625000 0.811632
vt 0.375000 0.875000
vt 0.375000 0.811632
vt 0.625000 0.311632
vt 0.375000 0.375000
vt 0.375000 0.311632
vt 0.625000 0.250000
vt 0.125000 0.750000
vt 0.125000 0.500000
vt 0.750000 0.750000
vt 0.625000 0.875000
vt 0.625000 0.750000
vt 0.250000 0.750000
vt 0.625000 0.375000
vt 0.375000 0.250000
vt 0.591029 0.000000
vt 0.591029 0.250000
vt 0.375000 0.500000
vt 0.591029 0.437500
vt 0.591029 0.500000
vt 0.375000 0.750000
vt 0.591029 0.750000
vt 0.375000 1.000000
vt 0.591029 0.937500
vt 0.591029 1.000000
vt 0.312500 0.750000
vt 0.312500 0.500000
vt 0.250000 0.500000
vt 0.218750 0.750000
vt 0.218750 0.500000
vt 0.591029 0.875000
vt 0.375000 0.843750
vt 0.591029 0.843750
vt 0.375000 0.343750
vt 0.591029 0.375000
vt 0.375000 0.375000
vt 0.591029 0.312500
vt 0.375000 0.312500
vt 0.187500 0.500000
vt 0.125000 0.750000
vt 0.125000 0.500000
vt 0.375000 0.937500
vt 0.591029 0.906250
vt 0.591029 0.812500
vt 0.281250 0.750000
vt 0.281250 0.500000
vt 0.375000 0.437500
vt 0.591029 0.406250
vt 0.375000 0.906250
vt 0.591029 0.343750
vt 0.187500 0.750000
vt 0.375000 0.406250
vt 0.250000 0.750000
vt 0.375000 0.812500
vt 0.236254 0.545741
vt 0.222508 0.545741
vt 0.222508 0.704256
vt 0.263746 0.704256
vt 0.277492 0.704256
vt 0.277492 0.545741
vt 0.625000 1.000000
vt 0.875000 0.750000
vt 0.375000 0.000000
vt 0.375000 0.875000
vt 0.195016 0.545741
vt 0.195016 0.704256
vt 0.236254 0.704256
vt 0.250000 0.704256
vt 0.250000 0.545741
vt 0.304984 0.704256
vt 0.304984 0.545741
vt 0.263746 0.545741
vn 1.0000 0.0000 0.0000
vn 0.0000 0.0000 1.0000
vn -1.0000 0.0000 0.0000
vn 0.0000 0.0000 -1.0000
vn 0.0000 -1.0000 0.0000
vn 0.0000 1.0000 0.0000
vn 0.9356 -0.3530 0.0000
vn -0.9356 -0.3530 0.0000
usemtl マテリアル.002
s off
f 2/1/1 3/2/1 1/3/1
f 17/4/2 7/5/2 19/6/2
f 8/7/3 5/8/3 7/5/3
f 14/9/4 1/10/4 16/11/4
f 7/5/5 18/12/5 19/13/5
f 4/14/6 14/15/6 15/16/6
f 10/17/6 20/18/6 17/19/6
f 9/20/5 16/21/5 13/22/5
f 20/23/4 11/24/4 18/25/4
f 15/26/2 9/27/2 13/28/2
f 4/29/2 13/28/2 3/2/2
f 13/22/5 1/30/5 3/31/5
f 15/16/6 12/32/6 10/17/6
f 12/33/4 16/11/4 11/24/4
f 6/34/4 18/25/4 5/8/4
f 17/19/6 6/34/6 8/7/6
f 19/13/5 11/35/5 9/20/5
f 10/36/2 19/6/2 9/27/2
f 22/37/7 35/38/7 36/39/7
f 24/40/2 37/41/2 38/42/2
f 23/43/8 38/42/8 39/44/8
f 21/45/4 40/46/4 35/47/4
f 24/40/5 29/48/5 30/49/5
f 25/50/5 31/51/5 32/52/5
f 42/53/4 34/54/4 41/55/4
f 32/56/2 44/57/2 25/58/2
f 22/37/2 45/59/2 27/60/2
f 27/61/5 21/62/5 22/63/5
f 28/64/4 46/65/4 40/46/4
f 47/66/4 23/43/4 39/44/4
f 30/49/5 34/67/5 33/68/5
f 30/69/2 48/70/2 37/41/2
f 31/71/4 42/53/4 46/65/4
f 27/60/2 43/72/2 32/56/2
f 32/52/5 28/73/5 27/61/5
f 33/74/2 44/57/2 48/70/2
f 33/68/5 26/75/5 25/50/5
f 41/55/4 29/76/4 47/66/4
f 43/77/6 45/78/6 40/79/6
f 41/80/6 47/81/6 37/82/6
f 2/1/1 4/29/1 3/2/1
f 17/4/2 8/7/2 7/5/2
f 8/7/3 6/34/3 5/8/3
f 14/9/4 2/83/4 1/10/4
f 7/5/5 5/8/5 18/12/5
f 4/14/6 2/84/6 14/15/6
f 10/17/6 12/32/6 20/18/6
f 9/20/5 11/35/5 16/21/5
f 20/23/4 12/33/4 11/24/4
f 15/26/2 10/36/2 9/27/2
f 4/29/2 15/26/2 13/28/2
f 13/22/5 16/21/5 1/30/5
f 15/16/6 14/15/6 12/32/6
f 12/33/4 14/9/4 16/11/4
f 6/34/4 20/23/4 18/25/4
f 17/19/6 20/18/6 6/34/6
f 19/13/5 18/12/5 11/35/5
f 10/36/2 17/4/2 19/6/2
f 22/37/7 21/85/7 35/38/7
f 24/40/2 30/69/2 37/41/2
f 23/43/8 24/40/8 38/42/8
f 21/45/4 28/64/4 40/46/4
f 24/40/5 23/43/5 29/48/5
f 25/50/5 26/75/5 31/51/5
f 42/53/4 26/86/4 34/54/4
f 32/56/2 43/72/2 44/57/2
f 22/37/2 36/39/2 45/59/2
f 27/61/5 28/73/5 21/62/5
f 28/64/4 31/71/4 46/65/4
f 47/66/4 29/76/4 23/43/4
f 30/49/5 29/48/5 34/67/5
f 30/69/2 33/74/2 48/70/2
f 31/71/4 26/86/4 42/53/4
f 27/60/2 45/59/2 43/72/2
f 32/52/5 31/51/5 28/73/5
f 33/74/2 25/58/2 44/57/2
f 33/68/5 34/67/5 26/75/5
f 41/55/4 34/54/4 29/76/4
f 45/78/6 36/87/6 35/88/6
f 40/79/6 46/89/6 43/77/6
f 46/89/6 42/90/6 43/77/6
f 45/78/6 35/88/6 40/79/6
f 42/90/6 44/91/6 43/77/6
f 47/81/6 39/92/6 38/93/6
f 37/82/6 48/94/6 41/80/6
f 48/94/6 44/91/6 41/80/6
f 47/81/6 38/93/6 37/82/6
f 44/91/6 42/90/6 41/80/6
