# Blender v3.3.1 OBJ File: 'keyParts.blend'
# www.blender.org
mtllib keyParts5.mtl
o parts5_円柱.002
v 0.248672 -0.430712 0.059172
v 0.238674 -0.436484 0.058035
v 0.229061 -0.442034 0.054668
v 0.220202 -0.447149 0.049200
v 0.212436 -0.451632 0.041841
v 0.206063 -0.455312 0.032874
v 0.201328 -0.458046 0.022644
v 0.198412 -0.459729 0.011544
v 0.197427 -0.460298 0.000000
v 0.198412 -0.459729 -0.011544
v 0.201328 -0.458046 -0.022644
v 0.206063 -0.455312 -0.032874
v 0.212436 -0.451632 -0.041841
v 0.220202 -0.447149 -0.049200
v 0.229061 -0.442034 -0.054668
v 0.238674 -0.436484 -0.058035
v 0.248672 -0.430712 -0.059172
v 0.258669 -0.424940 -0.058035
v 0.268282 -0.419390 -0.054668
v 0.277142 -0.414275 -0.049200
v 0.284907 -0.409792 -0.041841
v 0.291280 -0.406112 -0.032874
v 0.296015 -0.403378 -0.022644
v 0.298931 -0.401694 -0.011544
v 0.299916 -0.401126 0.000000
v 0.298931 -0.401694 0.011544
v 0.296015 -0.403378 0.022644
v 0.291280 -0.406112 0.032874
v 0.284907 -0.409792 0.041841
v 0.277142 -0.414275 0.049200
v 0.268282 -0.419390 0.054668
v 0.258669 -0.424940 0.058035
v -0.238674 0.436484 0.058035
v -0.248672 0.430712 0.059172
v -0.229061 0.442034 0.054668
v -0.220202 0.447149 0.049200
v -0.212436 0.451632 0.041841
v -0.206063 0.455312 0.032874
v -0.201328 0.458046 0.022644
v -0.198412 0.459729 0.011544
v -0.197427 0.460298 0.000000
v -0.198412 0.459729 -0.011544
v -0.201328 0.458046 -0.022644
v -0.206063 0.455312 -0.032874
v -0.212436 0.451632 -0.041841
v -0.220202 0.447149 -0.049200
v -0.229061 0.442034 -0.054668
v -0.238674 0.436484 -0.058035
v -0.248672 0.430712 -0.059172
v -0.258669 0.424940 -0.058035
v -0.268282 0.419390 -0.054668
v -0.277141 0.414275 -0.049200
v -0.284907 0.409791 -0.041841
v -0.291280 0.406112 -0.032874
v -0.296015 0.403378 -0.022644
v -0.298931 0.401694 -0.011544
v -0.299916 0.401126 0.000000
v -0.298931 0.401694 0.011544
v -0.296015 0.403378 0.022644
v -0.291280 0.406112 0.032874
v -0.284907 0.409791 0.041841
v -0.277141 0.414275 0.049200
v -0.268282 0.419390 0.054668
v -0.258669 0.424940 0.058035
vt 0.841844 0.028269
vt 0.528269 0.158156
vt 0.658156 0.471731
vt 0.031250 0.500000
vt 0.000000 0.748672
vt 0.000000 0.500000
vt 0.062500 0.500000
vt 0.031250 0.748672
vt 0.093750 0.500000
vt 0.062500 0.748672
vt 0.125000 0.500000
vt 0.093750 0.748672
vt 0.156250 0.500000
vt 0.125000 0.748672
vt 0.187500 0.500000
vt 0.156250 0.748672
vt 0.218750 0.500000
vt 0.187500 0.748672
vt 0.250000 0.500000
vt 0.218750 0.748672
vt 0.281250 0.500000
vt 0.250000 0.748672
vt 0.312500 0.500000
vt 0.281250 0.748672
vt 0.343750 0.500000
vt 0.312500 0.748672
vt 0.375000 0.500000
vt 0.343750 0.748672
vt 0.406250 0.748672
vt 0.375000 0.748672
vt 0.406250 0.500000
vt 0.437500 0.748672
vt 0.437500 0.500000
vt 0.468750 0.748672
vt 0.468750 0.500000
vt 0.500000 0.748672
vt 0.500000 0.500000
vt 0.531250 0.748672
vt 0.531250 0.500000
vt 0.562500 0.748672
vt 0.562500 0.500000
vt 0.593750 0.748672
vt 0.593750 0.500000
vt 0.625000 0.748672
vt 0.625000 0.500000
vt 0.656250 0.748672
vt 0.656250 0.500000
vt 0.687500 0.748672
vt 0.687500 0.500000
vt 0.718750 0.748672
vt 0.718750 0.500000
vt 0.750000 0.748672
vt 0.750000 0.500000
vt 0.781250 0.748672
vt 0.781250 0.500000
vt 0.812500 0.748672
vt 0.812500 0.500000
vt 0.843750 0.748672
vt 0.843750 0.500000
vt 0.875000 0.748672
vt 0.906250 0.500000
vt 0.875000 0.500000
vt 0.937500 0.500000
vt 0.906250 0.748672
vt 0.968750 0.500000
vt 0.937500 0.748672
vt 1.000000 0.500000
vt 0.968750 0.748672
vt 0.248557 0.632254
vt 0.257254 0.626443
vt 0.251443 0.617746
vt 0.703178 0.485388
vt 0.841844 0.471731
vt 0.750000 0.490000
vt 0.796822 0.485388
vt 0.883337 0.449553
vt 0.919706 0.419706
vt 0.949553 0.383337
vt 0.971731 0.341844
vt 0.985388 0.296822
vt 0.990000 0.250000
vt 0.985388 0.203178
vt 0.971731 0.158156
vt 0.949553 0.116663
vt 0.919706 0.080294
vt 0.883337 0.050447
vt 0.796822 0.014612
vt 0.750000 0.010000
vt 0.703178 0.014612
vt 0.658156 0.028269
vt 0.616663 0.050447
vt 0.580294 0.080294
vt 0.550447 0.116663
vt 0.514612 0.203178
vt 0.528269 0.341844
vt 0.510000 0.250000
vt 0.514612 0.296822
vt 0.550447 0.383337
vt 0.580294 0.419706
vt 0.616663 0.449553
vt 1.000000 0.748672
vt 0.250000 0.617604
vt 0.248557 0.617746
vt 0.247170 0.618167
vt 0.245891 0.618850
vt 0.244770 0.619770
vt 0.243850 0.620891
vt 0.243167 0.622169
vt 0.242746 0.623557
vt 0.242604 0.625000
vt 0.242746 0.626443
vt 0.243167 0.627831
vt 0.243850 0.629109
vt 0.244770 0.630230
vt 0.245891 0.631150
vt 0.247170 0.631833
vt 0.250000 0.632396
vt 0.251443 0.632254
vt 0.252830 0.631833
vt 0.254109 0.631150
vt 0.255230 0.630230
vt 0.256150 0.629109
vt 0.256833 0.627830
vt 0.257396 0.625000
vt 0.257254 0.623557
vt 0.256833 0.622169
vt 0.256150 0.620891
vt 0.255230 0.619770
vt 0.254109 0.618850
vt 0.252830 0.618167
vn 0.5000 -0.8660 0.0000
vn 0.0849 0.0490 0.9952
vn 0.2514 0.1451 0.9569
vn 0.4082 0.2357 0.8819
vn 0.5494 0.3172 0.7730
vn 0.6694 0.3865 0.6344
vn 0.7638 0.4410 0.4714
vn 0.8287 0.4785 0.2903
vn 0.8619 0.4976 0.0980
vn 0.8619 0.4976 -0.0980
vn 0.8287 0.4785 -0.2903
vn 0.7638 0.4410 -0.4714
vn 0.6694 0.3865 -0.6344
vn 0.5494 0.3172 -0.7730
vn 0.4082 0.2357 -0.8819
vn 0.2514 0.1451 -0.9569
vn 0.0849 0.0490 -0.9952
vn -0.0849 -0.0490 -0.9952
vn -0.2514 -0.1451 -0.9569
vn -0.4082 -0.2357 -0.8819
vn -0.5494 -0.3172 -0.7730
vn -0.6694 -0.3865 -0.6344
vn -0.7638 -0.4410 -0.4714
vn -0.8287 -0.4785 -0.2903
vn -0.8619 -0.4976 -0.0980
vn -0.8619 -0.4976 0.0980
vn -0.8287 -0.4785 0.2903
vn -0.7638 -0.4410 0.4714
vn -0.6694 -0.3865 0.6344
vn -0.5494 -0.3172 0.7730
vn -0.4082 -0.2357 0.8819
vn -0.2514 -0.1451 0.9569
vn -0.0849 -0.0490 0.9952
vn -0.5000 0.8660 0.0000
usemtl マテリアル.004
s off
f 15/1/1 23/2/1 31/3/1
f 32/4/2 34/5/2 1/6/2
f 31/7/3 33/8/3 32/4/3
f 30/9/4 35/10/4 31/7/4
f 29/11/5 36/12/5 30/9/5
f 28/13/6 37/14/6 29/11/6
f 27/15/7 38/16/7 28/13/7
f 26/17/8 39/18/8 27/15/8
f 25/19/9 40/20/9 26/17/9
f 24/21/10 41/22/10 25/19/10
f 23/23/11 42/24/11 24/21/11
f 22/25/12 43/26/12 23/23/12
f 21/27/13 44/28/13 22/25/13
f 21/27/14 46/29/14 45/30/14
f 20/31/15 47/32/15 46/29/15
f 19/33/16 48/34/16 47/32/16
f 18/35/17 49/36/17 48/34/17
f 17/37/18 50/38/18 49/36/18
f 16/39/19 51/40/19 50/38/19
f 15/41/20 52/42/20 51/40/20
f 14/43/21 53/44/21 52/42/21
f 13/45/22 54/46/22 53/44/22
f 12/47/23 55/48/23 54/46/23
f 11/49/24 56/50/24 55/48/24
f 10/51/25 57/52/25 56/50/25
f 9/53/26 58/54/26 57/52/26
f 8/55/27 59/56/27 58/54/27
f 7/57/28 60/58/28 59/56/28
f 6/59/29 61/60/29 60/58/29
f 4/61/30 61/60/30 5/62/30
f 3/63/31 62/64/31 4/61/31
f 2/65/32 63/66/32 3/63/32
f 1/67/33 64/68/33 2/65/33
f 48/69/34 56/70/34 64/71/34
f 31/3/1 32/72/1 3/73/1
f 32/72/1 1/74/1 3/73/1
f 1/74/1 2/75/1 3/73/1
f 3/73/1 4/76/1 5/77/1
f 5/77/1 6/78/1 7/79/1
f 7/79/1 8/80/1 9/81/1
f 9/81/1 10/82/1 7/79/1
f 10/82/1 11/83/1 7/79/1
f 11/83/1 12/84/1 13/85/1
f 13/85/1 14/86/1 15/1/1
f 15/1/1 16/87/1 17/88/1
f 17/88/1 18/89/1 15/1/1
f 18/89/1 19/90/1 15/1/1
f 19/90/1 20/91/1 21/92/1
f 21/92/1 22/93/1 23/2/1
f 23/2/1 24/94/1 27/95/1
f 24/94/1 25/96/1 27/95/1
f 25/96/1 26/97/1 27/95/1
f 27/95/1 28/98/1 31/3/1
f 28/98/1 29/99/1 31/3/1
f 29/99/1 30/100/1 31/3/1
f 3/73/1 5/77/1 7/79/1
f 11/83/1 13/85/1 7/79/1
f 13/85/1 15/1/1 7/79/1
f 19/90/1 21/92/1 15/1/1
f 21/92/1 23/2/1 15/1/1
f 31/3/1 3/73/1 7/79/1
f 23/2/1 27/95/1 31/3/1
f 31/3/1 7/79/1 15/1/1
f 32/4/2 33/8/2 34/5/2
f 31/7/3 35/10/3 33/8/3
f 30/9/4 36/12/4 35/10/4
f 29/11/5 37/14/5 36/12/5
f 28/13/6 38/16/6 37/14/6
f 27/15/7 39/18/7 38/16/7
f 26/17/8 40/20/8 39/18/8
f 25/19/9 41/22/9 40/20/9
f 24/21/10 42/24/10 41/22/10
f 23/23/11 43/26/11 42/24/11
f 22/25/12 44/28/12 43/26/12
f 21/27/13 45/30/13 44/28/13
f 21/27/14 20/31/14 46/29/14
f 20/31/15 19/33/15 47/32/15
f 19/33/16 18/35/16 48/34/16
f 18/35/17 17/37/17 49/36/17
f 17/37/18 16/39/18 50/38/18
f 16/39/19 15/41/19 51/40/19
f 15/41/20 14/43/20 52/42/20
f 14/43/21 13/45/21 53/44/21
f 13/45/22 12/47/22 54/46/22
f 12/47/23 11/49/23 55/48/23
f 11/49/24 10/51/24 56/50/24
f 10/51/25 9/53/25 57/52/25
f 9/53/26 8/55/26 58/54/26
f 8/55/27 7/57/27 59/56/27
f 7/57/28 6/59/28 60/58/28
f 6/59/29 5/62/29 61/60/29
f 4/61/30 62/64/30 61/60/30
f 3/63/31 63/66/31 62/64/31
f 2/65/32 64/68/32 63/66/32
f 1/67/33 34/101/33 64/68/33
f 64/71/34 34/102/34 33/103/34
f 33/103/34 35/104/34 36/105/34
f 36/105/34 37/106/34 38/107/34
f 38/107/34 39/108/34 40/109/34
f 40/109/34 41/110/34 42/111/34
f 42/111/34 43/112/34 44/113/34
f 44/113/34 45/114/34 46/115/34
f 46/115/34 47/116/34 48/69/34
f 48/69/34 49/117/34 50/118/34
f 50/118/34 51/119/34 52/120/34
f 52/120/34 53/121/34 54/122/34
f 54/122/34 55/123/34 56/70/34
f 56/70/34 57/124/34 58/125/34
f 58/125/34 59/126/34 60/127/34
f 60/127/34 61/128/34 62/129/34
f 62/129/34 63/130/34 64/71/34
f 64/71/34 33/103/34 40/109/34
f 33/103/34 36/105/34 40/109/34
f 36/105/34 38/107/34 40/109/34
f 40/109/34 42/111/34 44/113/34
f 44/113/34 46/115/34 48/69/34
f 48/69/34 50/118/34 56/70/34
f 50/118/34 52/120/34 56/70/34
f 52/120/34 54/122/34 56/70/34
f 56/70/34 58/125/34 60/127/34
f 60/127/34 62/129/34 64/71/34
f 40/109/34 44/113/34 48/69/34
f 56/70/34 60/127/34 64/71/34
f 64/71/34 40/109/34 48/69/34
